 http://desibbrg.org/images/66952052392581364616.gif 
http://desibbrg.org/images/31537019500998195262.jpg 
http://desibbrg.org/images/09338835297685486534.png 
http://desibbrg.org/images/41538174031704613222.png 
http://desibbrg.org/images/46846216096262102011.png 
http://desibbrg.org/images/22993416119603525634.png

Media Info - 
Video
ID                             : 1
Format                         : AVC
Format/Info                    : Advanced Video Codec
Format profile                 : Main@L1.3
Format settings, CABAC         : Yes
Format settings, ReFrames      : 4 frames
Codec ID                       : avc1
Codec ID/Info                  : Advanced Video Coding
Duration                       : 1h 47mn
Bit rate mode                  : Variable
Bit rate                       : 352 Kbps
Width                          : 348 pixels
Height                         : 178 pixels
Display aspect ratio           : 2.136
Frame rate mode                : Variable
Frame rate                     : 24.982 fps
Minimum frame rate             : 4.167 fps
Maximum frame rate             : 25.000 fps
Color space                    : YUV
Chroma subsampling             : 4:2:0
Bit depth                      : 8 bits
Scan type                      : Progressive
Bits/(Pixel*Frame)             : 0.228
Stream size                    : 272 MiB (68%)
Writing library                : x264 core 120
Color primaries                : BT.601 NTSC
Transfer characteristics       : BT.709
Matrix coefficients            : BT.601

Audio
ID                             : 2
Format                         : AAC
Format/Info                    : Advanced Audio Codec
Format profile                 : LC
Codec ID                       : 40
Duration                       : 1h 47mn
Bit rate mode                  : Variable
Bit rate                       : 160 Kbps
Maximum bit rate               : 177 Kbps
Channel(s)                     : 2 channels
Channel positions              : Front: L R
Sampling rate                  : 48.0 KHz
Compression mode               : Lossy
Delay relative to video        : 80ms
Stream size                    : 123 MiB (31%)

Sample in Torrent...

Seeding 24x7... Extreme Seeding...


Enjoy!
